# xmcd
#
# Track frame offsets:
#	150
#	16884
#	32436
#	49035
#	63068
#	83404
#	101993
#	117682
#	133231
#	144922
#	163310
#	180573
#	202176
#	222698
#	242755
#	257765
#
# Disc length: 3666 seconds
#
# Revision: 1
# Processed by: cddbd v1.5.2PL0 Copyright (c) Steve Scherf et al.
# Submitted via: audiograbber 1.83.01
#
DISCID=ea0e5010
DTITLE=Chartbusters - Country 500 Vol.1 d.24 8532-24
DYEAR=1900
DGENRE=karaoke
TTITLE0=Toby Keith - How Do You Like Me Now?!
TTITLE1=Chely Wright - Single White Female
TTITLE2=Terri Clark - You're Easy on the Eyes
TTITLE3=Aaron Tippin - Kiss This
TTITLE4=Dixie Chicks - Goodbye Earl
TTITLE5=Lonestar - Amazed
TTITLE6=Faith Hill - The Way You Love Me
TTITLE7=Chris Cagle - My Love Goes on and On
TTITLE8=Julie Reeves - Trouble Is a Woman
TTITLE9=Phil Vassar - Just Another Day in Paradise
TTITLE10=Dixie Chicks - Sin wagon
TTITLE11=Sara Evans - Saints and Angels
TTITLE12=David Ball - Riding with Private Malone
TTITLE13=Jessica Andrews - Who I am
TTITLE14=Emerson Drive - I should be sleeping
TTITLE15=LeAnn Rimes - Can't Fight the Moonlight
EXTD=
EXTT0=
EXTT1=
EXTT2=
EXTT3=
EXTT4=
EXTT5=
EXTT6=
EXTT7=
EXTT8=
EXTT9=
EXTT10=
EXTT11=
EXTT12=
EXTT13=
EXTT14=
EXTT15=
PLAYORDER=
